<?xml version="1.0" encoding="UTF-8"?>
<svg xmlns="http://www.w3.org/2000/svg" version="1.1" viewBox="0 0 1417.3 1984.3">
  <defs>
    <style>
      .cls-1 {
        fill: #231f20;
      }

      .cls-2 {
        fill: #fbb040;
      }

      .cls-3 {
        fill: none;
        stroke: #00a651;
        stroke-miterlimit: 10;
        stroke-width: 5px;
      }

      .cls-4 {
        fill: #fff;
      }
    </style>
  </defs>
  <!-- Generator: Adobe Illustrator 28.7.2, SVG Export Plug-In . SVG Version: 1.2.0 Build 154)  -->
  <g>
    <g id="Layer_1">
      <g>
        <path class="cls-1" d="M460.7,488c-3.3-11.3-11.1-14.5-26.9-16.1l-8.7-1c-23.8-2.7-40.3-10.1-46.4-30.5-6.7-22.5,7.8-41.8,34.6-49.7,13.3-3.9,26.1-3.6,36.7,0l6.3,26.3-14.6,4.3-13.6-27.5,15.6,1.8,2.8,9.6c-12.3-5.4-20.5-6.9-30.5-3.9-12.9,3.8-20.8,14-17.1,26.4,3.3,11.1,12.1,15.2,26.3,16.7l9.3,1.1c28,3,41.1,10.9,46.7,29.7,6.7,22.6-7,42.9-36.6,51.7-14.4,4.3-30.7,4.9-42.4,1.6l-7.1-28,14.7-4.4,14,28.8-15.1-1-2.7-9.2c14.3,4,22.6,5.5,35.3,1.7,15.9-4.7,23.2-15.7,19.4-28.4Z"/>
        <path class="cls-1" d="M471,382.2l-27.5-3v-9.4h59.4v9.7l-26.3,2.7h-5.5ZM453,369.8h27.8l36.8,107.3-5,2.2,37-109.5h11.9l-45.8,133.6h-13.9l-48.8-133.6ZM557.2,381.6l-4.2.6h-3.5l-20.7-2.7v-9.7h32.6"/>
        <g>
          <path class="cls-1" d="M600.9,396.3v-2.4h15.1v3.3h-.9l-14.3-.9ZM616,473.2v3.3h-15.1v-2.4l14.3-.9h.9ZM614.2,433.2c0-14.2,0-26.8-.2-39.3h4.1c-.2,12.4-.2,25.1-.2,39.3v1.8c0,16.3,0,29,.2,41.5h-4.1c.2-12.4.2-25.1.2-41.5v-1.8ZM616,473.8h13.5c26.5,0,39-15.1,39-38.5s-12.8-38.7-37.2-38.7h-15.4v-2.7h16.2c25.6,0,40.3,14.9,40.3,41.4s-14.4,41.2-41.4,41.2h-15.1v-2.7Z"/>
          <path class="cls-1" d="M685.6,396.3v-2.4h15.1v3.3h-.9l-14.3-.9ZM700.7,473.2v3.3h-15.1v-2.4l14.3-.9h.9ZM698.9,431.7c0-12.7,0-25.4-.2-37.8h4.1c-.2,12.4-.2,25.1-.2,40.3v.9c0,16.3,0,29,.2,41.5h-4.1c.2-12.4.2-25.1.2-37.8v-7ZM739.4,393.9l1.7,2.7h-40.4v-2.7h42.7l1.2,18.7h-2.9l-2.3-18.7ZM727.7,436.1h-27v-2.7h27v2.7ZM746.3,457.8l-1.2,18.7h-44.4v-2.7h42.1l-1.7,2.7,2.3-18.7h2.9ZM726.6,433.5l1.2-12h2.3v26.4h-2.3l-1.2-12v-2.4Z"/>
          <path class="cls-1" d="M804.6,456.6c0-9-4-14.2-19.6-20.5l-4.5-1.8c-13.1-5.2-18.9-12.2-18.9-22.2s11.3-19.8,23.3-19.8,13.9,2.1,19.6,5.9l-.4,14.6h-2.7l-1.2-15.2,1.8,1.1v1.5c-5.2-3.7-10.1-5.1-17.1-5.1-11.7,0-20.1,5.4-20.1,16.7s6.1,14.8,15.7,18.7l4.9,2c18.2,7.3,22.4,13.3,22.4,24.2s-11.2,21.6-26.5,21.6-18.2-3.3-22.9-6.6l.6-15.4h2.3l1.6,16-2.3-1.3v-2c7,5.2,12.4,6.6,20.7,6.6,13.4,0,23.2-6,23.2-18.8Z"/>
          <path class="cls-1" d="M821.7,396.3v-2.4h30.3v2.4l-14.3.9h-1.7l-14.3-.9ZM837.7,473.2l14.3.9v2.4h-30.3v-2.4l14.3-.9h1.7ZM835,431.7c0-12.7,0-25.4-.2-37.8h4.1c-.2,12.4-.2,25.1-.2,37.8v7c0,12.7,0,25.4.2,37.8h-4.1c.2-12.4.2-25.1.2-37.8v-7Z"/>
          <path class="cls-1" d="M930.3,470.6c-9,5.5-16,7.4-25.5,7.4-23.9,0-39.8-17.3-39.8-42.8s16.5-42.9,39.9-42.9,17.3,2.6,24.6,7.2l.5,17h-2.9l-2.2-17.7,2.6,1.1v2.4c-6.8-4.9-12.6-7.3-22.2-7.3-22.1,0-36.4,16-36.4,40.3s14.2,40.1,35.6,40.1,16.3-2.2,23.7-7.2l-1.6,2v-5.7c0-9-.1-17.9-.4-27h4.4c-.2,7.7-.4,15.5-.4,27v6.2ZM911.8,439.9v-2.4h28.1v2.4l-10.5.9h-1.7l-15.9-.9Z"/>
        </g>
        <path class="cls-1" d="M946.5,490.6l3.3-.5h4.9l24.4,3v9.4h-32.6M946.5,381.1,946.5,369.8h20.5l77.3,106.2v27.4h-11.8l-85.9-118.1M946.5,370.6l10.6,8.7v123.2h-11.5M1010.8,349.8h50.4v9.4l-20.1,3h-4.8l-25.5-3v-9.4ZM1032.8,349.8h11.5v153.6l-11.5-11.5v-142.1Z"/>
      </g>
      <polyline class="cls-1" points="563.3 379.2 942 379.3 942 369.8 566.5 369.8"/>
      <polyline class="cls-1" points="524.5 493.1 942 493.1 942 502.5 520.9 503.4"/>
      <line class="cls-2" x1="524.4" y1="493.1" x2="520.9" y2="503.4"/>
      <path class="cls-1" d="M566.4,369.8"/>
      <path class="cls-3" d="M557.2,381.6"/>
      <line class="cls-1" x1="557.2" y1="381.6" x2="561.2" y2="369.8"/>
      <rect class="cls-4" x="941.5" y="350" width="5" height="174"/>
    </g>
  </g>
</svg>